<?xml version="1.0" encoding="UTF-8"?>
<svg version="1.1" xmlns="http://www.w3.org/2000/svg" width="500" height="500">
<path d="M0 0 C1.15189821 -0.00538554 2.30379643 -0.01077108 3.49060065 -0.01631981 C6.67469544 -0.02812437 9.85845328 -0.02654065 13.04255092 -0.019153 C16.48162871 -0.01441509 19.92065085 -0.02693665 23.35971069 -0.03717041 C30.09187978 -0.05435141 36.82395551 -0.05519991 43.55614083 -0.04995751 C49.02883661 -0.04591337 54.50150483 -0.04736225 59.9741993 -0.05270576 C60.75359295 -0.05345419 61.53298661 -0.05420261 62.33599826 -0.05497371 C63.91941567 -0.05650521 65.50283309 -0.05804356 67.08625049 -0.05958868 C81.92935966 -0.07331112 96.7724161 -0.06787777 111.61552406 -0.05640347 C125.18943251 -0.04647068 138.76320466 -0.05941296 152.33709209 -0.08333766 C166.28171955 -0.10773026 180.22628352 -0.11733618 194.17093188 -0.11068493 C201.99703057 -0.10719315 209.82302443 -0.10942207 217.64910698 -0.12693596 C224.31103315 -0.14165994 230.97278066 -0.14229088 237.63470333 -0.12486505 C241.03222703 -0.11635428 244.4294316 -0.11420691 247.82693863 -0.1295166 C251.5134269 -0.14268592 255.19904725 -0.13121331 258.88549805 -0.11352539 C260.48925282 -0.1279329 260.48925282 -0.1279329 262.12540668 -0.14263147 C269.98837952 -0.06499062 275.1733285 1.66075177 281.25624084 6.63768005 C287.04854344 13.717161 288.09385522 19.79262239 288.02381897 28.81736755 C288.03433289 30.49696564 288.03433289 30.49696564 288.0450592 32.210495 C288.06259786 35.89481239 288.05103027 39.57835547 288.03749084 43.26268005 C288.04018692 45.83283129 288.04407031 48.40298152 288.04908752 50.97312927 C288.05497703 56.35295799 288.04682144 61.73249819 288.02772522 67.11228943 C288.00595944 73.31544334 288.01301204 79.51807121 288.03503084 85.72121239 C288.0554305 91.70990076 288.05319457 97.6983336 288.04150391 103.6870575 C288.03884065 106.2259173 288.04209219 108.76479058 288.05142212 111.30363464 C288.06161095 114.85544603 288.04605207 118.40625554 288.02381897 121.95799255 C288.03191589 123.00134766 288.04001282 124.04470276 288.0483551 125.11967468 C287.9581278 132.92288619 286.19504858 138.10135949 281.25624084 144.13768005 C274.11285819 149.98226587 267.99600622 150.97163982 258.89222717 150.89561462 C257.73947453 150.90185459 256.5867219 150.90809455 255.39903736 150.9145236 C252.21710285 150.92767257 249.03578381 150.92300224 245.85386515 150.91057873 C242.41547865 150.90150244 238.9771733 150.91551068 235.5388031 150.92649841 C228.81008167 150.94426085 222.08153898 150.94045387 215.35281062 150.92884785 C209.88299391 150.91980481 204.4132272 150.91859329 198.94340515 150.92294312 C198.16414698 150.92355605 197.38488882 150.92416898 196.58201677 150.92480049 C194.99884087 150.92607942 193.415665 150.92737627 191.83248913 150.92869085 C176.99603163 150.94008998 162.15967309 150.92699344 147.32323182 150.90548939 C134.6000056 150.88761899 121.87692537 150.89072329 109.15370178 150.90916443 C94.36940324 150.93058295 79.58519137 150.9389914 64.80087948 150.92671537 C63.22361185 150.92544121 61.6463442 150.92418373 60.06907654 150.92294312 C58.90508629 150.92201746 58.90508629 150.92201746 57.71758109 150.92107311 C52.25596934 150.91762315 46.79441267 150.9234409 41.33280945 150.93286133 C34.67455799 150.94409362 28.01649509 150.94101554 21.35826516 150.91973835 C17.96276618 150.90924432 14.56758129 150.90507755 11.17208481 150.91833496 C7.48782797 150.92926334 3.80445503 150.91555756 0.12025452 150.89561462 C-0.94823321 150.90453751 -2.01672094 150.9134604 -3.11758709 150.92265368 C-10.97658073 150.84012467 -16.16368561 149.11228568 -22.24375916 144.13768005 C-28.02448139 137.07235288 -29.0837117 130.99656734 -29.02720642 121.98973083 C-29.03582199 120.87321136 -29.04443756 119.75669189 -29.05331421 118.6063385 C-29.07593476 114.93165103 -29.06924133 111.2577287 -29.06016541 107.58299255 C-29.06540311 105.01763178 -29.07168012 102.45227294 -29.07894897 99.88691711 C-29.08934639 94.5154867 -29.08513318 89.14434603 -29.07017517 83.77293396 C-29.05326661 77.58564336 -29.06907919 71.39905898 -29.10139805 65.21184552 C-29.13142798 59.23382571 -29.133255 53.25616245 -29.12389946 47.2780571 C-29.12308163 44.74642392 -29.12991269 42.21477587 -29.14467049 39.68318558 C-29.16217582 36.13641337 -29.14752094 32.59113182 -29.12486267 29.04441833 C-29.13655487 28.00825378 -29.14824707 26.97208923 -29.16029358 25.90452576 C-29.05460358 17.73405369 -26.91462666 10.89857039 -21.11875916 4.95018005 C-13.83119157 0.6123422 -8.40362671 -0.04714033 0 0 Z " fill="#FE7159" transform="translate(120.49375915527344,174.61231994628906)"/>
<path d="M0 0 C0.66 0.33 1.32 0.66 2 1 C1.67 1.66 1.34 2.32 1 3 C1.96039185 3.01401855 1.96039185 3.01401855 2.94018555 3.02832031 C5.85672375 3.08218847 8.77168625 3.16580199 11.6875 3.25 C12.69490234 3.26417969 13.70230469 3.27835938 14.74023438 3.29296875 C22.26438677 3.54129061 22.26438677 3.54129061 26.08203125 5.921875 C26.71496094 6.60765625 27.34789062 7.2934375 28 8 C28.66 8.66 29.32 9.32 30 10 C30.66 8.35 31.32 6.7 32 5 C35.96 5 39.92 5 44 5 C44 22.82 44 40.64 44 59 C40.04 59 36.08 59 32 59 C31.34 58.34 30.68 57.68 30 57 C29.44586426 57.48750732 28.89172852 57.97501465 28.32080078 58.47729492 C25.57612693 60.27810818 24.11908735 60.37419763 20.8671875 60.36328125 C19.89652344 60.36263672 18.92585938 60.36199219 17.92578125 60.36132812 C16.91902344 60.34521484 15.91226563 60.32910156 14.875 60.3125 C13.86050781 60.31572266 12.84601563 60.31894531 11.80078125 60.32226562 C4.26709214 60.26709214 4.26709214 60.26709214 2 58 C0.71431528 54.4744746 0.90034446 50.96555437 0.9375 47.25 C0.94652344 46.07953125 0.95554688 44.9090625 0.96484375 43.703125 C0.97644531 42.81109375 0.98804688 41.9190625 1 41 C3.97 41 6.94 41 10 41 C10.495 44.96 10.495 44.96 11 49 C12.98 49 14.96 49 17 49 C17.33 45.37 17.66 41.74 18 38 C16.72125 37.731875 15.4425 37.46375 14.125 37.1875 C8.99199113 36.11122395 4.01057711 34.53388745 -1 33 C-1.02900455 29.3958502 -1.04680018 25.79173038 -1.0625 22.1875 C-1.07087891 21.16333984 -1.07925781 20.13917969 -1.08789062 19.08398438 C-1.09272461 17.60961914 -1.09272461 17.60961914 -1.09765625 16.10546875 C-1.10551147 14.74651489 -1.10551147 14.74651489 -1.11352539 13.36010742 C-1 11 -1 11 0 8 C-1.32 7.67 -2.64 7.34 -4 7 C-3.67 9.64 -3.34 12.28 -3 15 C-6.86723631 16.26582219 -10.73151262 16.1118765 -14.75 16.0625 C-15.44738281 16.05798828 -16.14476562 16.05347656 -16.86328125 16.04882812 C-18.57555803 16.0371002 -20.28779033 16.01916653 -22 16 C-22 19.3 -22 22.6 -22 26 C-21.18015625 25.9278125 -20.3603125 25.855625 -19.515625 25.78125 C-18.43796875 25.6884375 -17.3603125 25.595625 -16.25 25.5 C-15.18265625 25.4071875 -14.1153125 25.314375 -13.015625 25.21875 C-10.6820782 25.04947717 -8.33967818 25 -6 25 C-6.66 28.63 -7.32 32.26 -8 36 C-13.28 36 -18.56 36 -24 36 C-24 43.59 -24 51.18 -24 59 C-26.97 59 -29.94 59 -33 59 C-33.02526605 51.32788798 -33.04283123 43.6557866 -33.05493164 35.98364258 C-33.05997377 33.37133381 -33.06680725 30.75902789 -33.07543945 28.14672852 C-33.08751036 24.40119732 -33.09322935 20.65570328 -33.09765625 16.91015625 C-33.10281754 15.73413345 -33.10797882 14.55811066 -33.11329651 13.34645081 C-33.11340981 11.72488319 -33.11340981 11.72488319 -33.11352539 10.07055664 C-33.115746 9.11347305 -33.11796661 8.15638947 -33.12025452 7.17030334 C-33 5 -33 5 -32 4 C-30.05983776 3.87822145 -28.1156049 3.82026523 -26.171875 3.7890625 C-24.38330078 3.74652344 -24.38330078 3.74652344 -22.55859375 3.703125 C-20.03529875 3.6513651 -17.5118404 3.60699976 -14.98828125 3.5703125 C-13.79074219 3.539375 -12.59320313 3.5084375 -11.359375 3.4765625 C-9.71146973 3.4468335 -9.71146973 3.4468335 -8.03027344 3.41650391 C-4.68117035 2.95617762 -2.82261359 1.78377794 0 0 Z " fill="#FA725B" transform="translate(239,217)"/>
<path d="M0 0 C3.96 0 7.92 0 12 0 C13.39118055 5.49516317 14.771604 10.99025288 16.0546875 16.51171875 C16.23225586 17.27556885 16.40982422 18.03941895 16.59277344 18.82641602 C16.94460807 20.34592201 17.29425627 21.86593611 17.64160156 23.38647461 C18.51573239 27.2967132 18.51573239 27.2967132 20 31 C20.14099121 30.30962646 20.28198242 29.61925293 20.42724609 28.90795898 C21.07370921 25.7505611 21.72431954 22.59403134 22.375 19.4375 C22.59671875 18.35146484 22.8184375 17.26542969 23.046875 16.14648438 C24.17417238 10.69235438 25.36500221 5.32520308 27 0 C30.96 0 34.92 0 39 0 C39 17.82 39 35.64 39 54 C36.03 54 33.06 54 30 54 C29.505 40.14 29.505 40.14 29 26 C27.0663874 34.83981642 27.0663874 34.83981642 25.14086914 43.68139648 C24.77916626 45.32217163 24.77916626 45.32217163 24.41015625 46.99609375 C24.16402588 48.12200928 23.91789551 49.2479248 23.66430664 50.40795898 C23 53 23 53 22 54 C20.33382885 54.04063832 18.66611905 54.042721 17 54 C15.23838207 50.84349501 14.42560013 47.8950743 13.7109375 44.359375 C13.51290527 43.39483398 13.31487305 42.43029297 13.11083984 41.43652344 C12.8680127 40.2199707 12.62518555 39.00341797 12.375 37.75 C11.59125 33.8725 10.8075 29.995 10 26 C9.67 35.24 9.34 44.48 9 54 C6.03 54 3.06 54 0 54 C0 36.18 0 18.36 0 0 Z " fill="#FEF6F4" transform="translate(289,222)"/>
<path d="M0 0 C21 0 21 0 26 3 C27.15118774 5.30237549 27.13827352 6.64101408 27.16113281 9.20263672 C27.17074036 10.07048798 27.1803479 10.93833923 27.19024658 11.83248901 C27.19449646 12.77206451 27.19874634 13.71164001 27.203125 14.6796875 C27.20882507 15.64399689 27.21452515 16.60830627 27.22039795 17.60183716 C27.22985424 19.64454041 27.23638442 21.68725896 27.24023438 23.72998047 C27.24993918 26.85541395 27.28095642 29.98018972 27.3125 33.10546875 C27.31903004 35.08853775 27.32428051 37.07161147 27.328125 39.0546875 C27.3404718 39.99021454 27.3528186 40.92574158 27.36553955 41.88961792 C27.34339187 48.34076309 27.34339187 48.34076309 25.66699219 51.55908203 C19.00084782 57.32117694 6.99982576 54 0 54 C0 36.18 0 18.36 0 0 Z " fill="#FEF5F2" transform="translate(172,222)"/>
<path d="M0 0 C20 0 20 0 26 3 C28.22888246 7.45776491 27.22992729 13.5422677 27.25 18.4375 C27.270625 19.69111328 27.29125 20.94472656 27.3125 22.23632812 C27.31765625 23.43580078 27.3228125 24.63527344 27.328125 25.87109375 C27.3374707 26.97380615 27.34681641 28.07651855 27.35644531 29.21264648 C27 32 27 32 25.66699219 33.82055664 C21.04377046 37.09161466 15.39032648 36.06341561 10 36 C10 41.94 10 47.88 10 54 C6.7 54 3.4 54 0 54 C0 36.18 0 18.36 0 0 Z " fill="#FDF9F6" transform="translate(334,222)"/>
<path d="M0 0 C21 0 21 0 26 4 C28.04532597 8.09065194 27.2731755 13.31639826 27.3125 17.8125 C27.34150391 18.90626953 27.37050781 20.00003906 27.40039062 21.12695312 C27.46446942 29.21566916 27.46446942 29.21566916 25.10546875 33.19921875 C21.58620888 36.20919797 19.44434009 36.11111 14.875 36.0625 C11.966875 36.0315625 11.966875 36.0315625 9 36 C9 41.94 9 47.88 9 54 C6.03 54 3.06 54 0 54 C0 36.18 0 18.36 0 0 Z " fill="#FDF8F5" transform="translate(139,222)"/>
<path d="M0 0 C1.2890625 0.0103125 2.578125 0.020625 3.90625 0.03125 C7.64693526 0.51916547 9.56937991 1.16399848 12.5 3.5 C14.76060083 6.66754847 14.71592078 9.43132726 14.625 13.25 C14.60695313 14.23484375 14.58890625 15.2196875 14.5703125 16.234375 C14.54710937 16.98203125 14.52390625 17.7296875 14.5 18.5 C11.2 18.5 7.9 18.5 4.5 18.5 C4.17 15.86 3.84 13.22 3.5 10.5 C1.52 10.5 -0.46 10.5 -2.5 10.5 C-2.83 14.13 -3.16 17.76 -3.5 21.5 C-1.2725 22.1496875 -1.2725 22.1496875 1 22.8125 C5.59600715 24.15300209 10.02914109 25.79476856 14.5 27.5 C14.5875127 30.72899426 14.64056146 33.95768116 14.6875 37.1875 C14.71263672 38.09951172 14.73777344 39.01152344 14.76367188 39.95117188 C14.85728419 48.53230051 14.85728419 48.53230051 11.5 52.5 C7.81296857 54.95802095 4.89825909 54.90285195 0.625 54.9375 C-0.08269531 54.97037109 -0.79039062 55.00324219 -1.51953125 55.03710938 C-5.35878223 55.07643131 -7.32894825 54.62029522 -10.48828125 52.3984375 C-12.95129842 48.84977976 -13.02826376 46.95962244 -12.8125 42.6875 C-12.76738281 41.52605469 -12.72226563 40.36460937 -12.67578125 39.16796875 C-12.58876953 37.84732422 -12.58876953 37.84732422 -12.5 36.5 C-9.53 36.5 -6.56 36.5 -3.5 36.5 C-3.17 39.14 -2.84 41.78 -2.5 44.5 C-0.52 44.5 1.46 44.5 3.5 44.5 C3.83 40.87 4.16 37.24 4.5 33.5 C3.18 33.231875 1.86 32.96375 0.5 32.6875 C-4.04109528 31.76509002 -8.18729112 30.16751985 -12.5 28.5 C-12.64560195 24.77124612 -12.73417043 21.04322566 -12.8125 17.3125 C-12.85439453 16.25740234 -12.89628906 15.20230469 -12.93945312 14.11523438 C-13.06149051 6.37806421 -13.06149051 6.37806421 -10.44921875 2.29296875 C-6.72136786 0.02663291 -4.34382395 -0.10425177 0 0 Z " fill="#FDF7F4" transform="translate(252.5,221.5)"/>
<path d="M0 0 C8.91 0 17.82 0 27 0 C27 2.97 27 5.94 27 9 C21.06 9 15.12 9 9 9 C9 13.62 9 18.24 9 23 C13.62 23 18.24 23 23 23 C23 25.64 23 28.28 23 31 C18.38 31 13.76 31 9 31 C9 38.59 9 46.18 9 54 C6.03 54 3.06 54 0 54 C0 36.18 0 18.36 0 0 Z " fill="#FEF9F6" transform="translate(206,222)"/>
<path d="M0 0 C0.66 0 1.32 0 2 0 C2 0.99 2 1.98 2 3 C3.98 3.495 3.98 3.495 6 4 C3.09500784 4.96833072 1.26143138 5.1261393 -1.75927544 5.12863445 C-2.74448264 5.1318589 -3.72968984 5.13508335 -4.74475181 5.1384055 C-5.82985011 5.1368569 -6.9149484 5.1353083 -8.03292847 5.13371277 C-9.75882428 5.1371111 -9.75882428 5.1371111 -11.51958668 5.14057809 C-14.71841012 5.14582447 -17.91719834 5.14656107 -21.11602473 5.14538372 C-24.56395673 5.14518002 -28.01188027 5.15069553 -31.45980835 5.15544128 C-38.21689497 5.1637551 -44.97397288 5.16649646 -51.73106419 5.16705366 C-57.22246574 5.16752848 -62.71386441 5.16958152 -68.20526505 5.17275429 C-83.76739676 5.1815629 -99.32952157 5.18617335 -114.89165579 5.18542381 C-115.73097871 5.18538386 -116.57030164 5.1853439 -117.43505859 5.18530273 C-118.69557656 5.18524141 -118.69557656 5.18524141 -119.98155953 5.18517885 C-133.6029741 5.18477234 -147.22436103 5.19434278 -160.8457676 5.2084411 C-174.8252721 5.22279612 -188.80476311 5.22971177 -202.78427517 5.22884732 C-210.6354604 5.22851505 -218.48661666 5.23127546 -226.33779526 5.24202538 C-233.02218098 5.2511189 -239.70652461 5.25331511 -246.39091383 5.24651595 C-249.80213244 5.2432449 -253.21327022 5.24321504 -256.6244812 5.2518692 C-260.32076188 5.25954508 -264.01682844 5.25497346 -267.71310425 5.24723816 C-269.33405953 5.2549535 -269.33405953 5.2549535 -270.98776138 5.26282471 C-272.47339543 5.25592652 -272.47339543 5.25592652 -273.98904228 5.24888897 C-274.84216653 5.24910634 -275.69529077 5.24932371 -276.57426727 5.24954766 C-279.3309489 4.96595358 -281.4831363 4.13302328 -284 3 C-284 2.67 -284 2.34 -284 2 C-190.61 2.33 -97.22 2.66 -1 3 C-0.67 2.01 -0.34 1.02 0 0 Z " fill="#E57866" transform="translate(388,320)"/>
<path d="M0 0 C0.9864406 -0.00322445 1.9728812 -0.00644889 2.98921394 -0.00977105 C4.07567648 -0.00822245 5.16213902 -0.00667385 6.28152466 -0.00507832 C8.00953717 -0.00847665 8.00953717 -0.00847665 9.77245903 -0.01194364 C12.97514368 -0.01718998 16.17779316 -0.01792663 19.38048077 -0.01674926 C22.83246452 -0.01654557 26.28443984 -0.02206099 29.73641968 -0.02680683 C36.50085631 -0.03512019 43.26528424 -0.03786197 50.02972555 -0.03841921 C55.52591164 -0.03889397 61.02209485 -0.04094671 66.51828003 -0.04411983 C82.09054306 -0.05292766 97.6627992 -0.05753892 113.23506474 -0.05678936 C114.4948373 -0.05672943 114.4948373 -0.05672943 115.78005981 -0.05666828 C116.62092974 -0.0566274 117.46179967 -0.05658652 118.32815051 -0.0565444 C131.96384924 -0.05613772 145.59952039 -0.06571255 159.23521113 -0.07980665 C173.2260061 -0.09415408 187.21678759 -0.10107776 201.2075901 -0.10021287 C209.06653635 -0.09988037 216.92545367 -0.10265058 224.78439331 -0.11339092 C231.4739599 -0.1224744 238.16348445 -0.12468892 244.85305452 -0.1178815 C248.26807583 -0.11460557 251.68301636 -0.11459803 255.09803009 -0.12323475 C258.79501051 -0.13089156 262.49177582 -0.12635194 266.18875122 -0.11860371 C267.81844502 -0.12631905 267.81844502 -0.12631905 269.48106194 -0.13419026 C270.46750254 -0.12959147 271.45394314 -0.12499267 272.47027588 -0.12025452 C273.32415956 -0.12047188 274.17804325 -0.12068925 275.0578022 -0.12091321 C277.23513794 0.12863445 277.23513794 0.12863445 280.23513794 2.12863445 C186.18513794 2.12863445 92.13513794 2.12863445 -4.76486206 2.12863445 C-5.09486206 3.11863445 -5.42486206 4.10863445 -5.76486206 5.12863445 C-8.73486206 4.63363445 -8.73486206 4.63363445 -11.76486206 4.12863445 C-7.83546788 1.01221838 -4.99376825 0.00411969 0 0 Z " fill="#E57965" transform="translate(113.76486206054688,174.87136554718018)"/>
<path d="M0 0 C3.3 0 6.6 0 10 0 C10 17.82 10 35.64 10 54 C6.7 54 3.4 54 0 54 C0 36.18 0 18.36 0 0 Z " fill="#FEF0ED" transform="translate(273,222)"/>
<path d="M0 0 C0.99 0.33 1.98 0.66 3 1 C3 19.15 3 37.3 3 56 C2.67 55.34 2.34 54.68 2 54 C0.68 54 -0.64 54 -2 54 C-2.33 54.66 -2.66 55.32 -3 56 C-3 38.18 -3 20.36 -3 2 C-1.515 2.99 -1.515 2.99 0 4 C0 2.68 0 1.36 0 0 Z " fill="#F3755F" transform="translate(286,220)"/>
<path d="M0 0 C0.66 0.33 1.32 0.66 2 1 C1.67 1.66 1.34 2.32 1 3 C1.96039185 3.01401855 1.96039185 3.01401855 2.94018555 3.02832031 C5.85672375 3.08218847 8.77168625 3.16580199 11.6875 3.25 C12.69490234 3.26417969 13.70230469 3.27835938 14.74023438 3.29296875 C22.22186833 3.53988736 22.22186833 3.53988736 26.14453125 5.859375 C28 8 28 8 29 11 C28.34 11.33 27.68 11.66 27 12 C26.566875 11.195625 26.13375 10.39125 25.6875 9.5625 C24.19525998 6.72153646 24.19525998 6.72153646 21 6 C18.50382632 5.82677293 16.06005517 5.72341882 13.5625 5.6875 C12.24378906 5.65011719 10.92507812 5.61273438 9.56640625 5.57421875 C6.01685027 5.68859081 6.01685027 5.68859081 3.81518555 7.68774414 C1.62488643 10.47783465 1.46865732 11.91042052 1.390625 15.421875 C1.35839844 16.44667969 1.32617188 17.47148437 1.29296875 18.52734375 C1.27878906 19.59082031 1.26460937 20.65429688 1.25 21.75 C1.20552734 23.36841797 1.20552734 23.36841797 1.16015625 25.01953125 C1.08953064 27.67976244 1.03679804 30.33912102 1 33 C0.34 33 -0.32 33 -1 33 C-1.02900455 29.3958502 -1.04680018 25.79173038 -1.0625 22.1875 C-1.07087891 21.16333984 -1.07925781 20.13917969 -1.08789062 19.08398438 C-1.09272461 17.60961914 -1.09272461 17.60961914 -1.09765625 16.10546875 C-1.10551147 14.74651489 -1.10551147 14.74651489 -1.11352539 13.36010742 C-1 11 -1 11 0 8 C-1.32 7.67 -2.64 7.34 -4 7 C-3.67 9.64 -3.34 12.28 -3 15 C-6.86723631 16.26582219 -10.73151262 16.1118765 -14.75 16.0625 C-15.44738281 16.05798828 -16.14476562 16.05347656 -16.86328125 16.04882812 C-18.57555803 16.0371002 -20.28779033 16.01916653 -22 16 C-22 19.3 -22 22.6 -22 26 C-21.18015625 25.9278125 -20.3603125 25.855625 -19.515625 25.78125 C-18.43796875 25.6884375 -17.3603125 25.595625 -16.25 25.5 C-15.18265625 25.4071875 -14.1153125 25.314375 -13.015625 25.21875 C-10.6820782 25.04947717 -8.33967818 25 -6 25 C-6.66 28.63 -7.32 32.26 -8 36 C-8.66 36 -9.32 36 -10 36 C-10 33.36 -10 30.72 -10 28 C-14.62 28 -19.24 28 -24 28 C-24 23.38 -24 18.76 -24 14 C-18.06 14 -12.12 14 -6 14 C-6 11.03 -6 8.06 -6 5 C-14.58 5 -23.16 5 -32 5 C-32 4.67 -32 4.34 -32 4 C-31.20827393 3.98541748 -30.41654785 3.97083496 -29.60083008 3.95581055 C-26.00423457 3.88121644 -22.40855557 3.78459167 -18.8125 3.6875 C-17.56662109 3.66494141 -16.32074219 3.64238281 -15.03710938 3.61914062 C-13.83505859 3.58369141 -12.63300781 3.54824219 -11.39453125 3.51171875 C-9.73707886 3.47244263 -9.73707886 3.47244263 -8.04614258 3.43237305 C-4.69604514 2.95685629 -2.82585362 1.7847986 0 0 Z " fill="#F18472" transform="translate(239,217)"/>
<path d="M0 0 C2.31 0 4.62 0 7 0 C8.7329298 1.7329298 8.12820046 3.96214336 8.13894653 6.27148438 C8.1369223 7.00689453 8.13489807 7.74230469 8.1328125 8.5 C8.13376923 9.25087891 8.13472595 10.00175781 8.13571167 10.77539062 C8.13639338 12.36588627 8.13453972 13.95638467 8.13037109 15.546875 C8.12502267 17.98964655 8.13031634 20.43223421 8.13671875 22.875 C8.13605797 24.41666707 8.1347768 25.95833403 8.1328125 27.5 C8.13483673 28.23541016 8.13686096 28.97082031 8.13894653 29.72851562 C8.11495161 34.88504839 8.11495161 34.88504839 7 36 C4.69 36 2.38 36 0 36 C0 24.12 0 12.24 0 0 Z " fill="#F6745E" transform="translate(182,231)"/>
<path d="M0 0 C0.33 0 0.66 0 1 0 C1 17.49 1 34.98 1 53 C0.34 53 -0.32 53 -1 53 C-1.66 52.34 -2.32 51.68 -3 51 C-3.55268555 51.48895752 -4.10537109 51.97791504 -4.67480469 52.48168945 C-7.45363498 54.29621545 -8.91589919 54.35030408 -12.203125 54.29296875 C-13.67265625 54.2784668 -13.67265625 54.2784668 -15.171875 54.26367188 C-16.69554687 54.2259668 -16.69554687 54.2259668 -18.25 54.1875 C-19.28125 54.17396484 -20.3125 54.16042969 -21.375 54.14648438 C-23.91719792 54.11117607 -26.45833223 54.06186036 -29 54 C-29.66 52.68 -30.32 51.36 -31 50 C-30.505 50.32355469 -30.01 50.64710938 -29.5 50.98046875 C-26.02696281 52.39681673 -22.69072251 52.32921523 -19 52.3125 C-18.2884375 52.32861328 -17.576875 52.34472656 -16.84375 52.36132812 C-13.66366696 52.36429462 -11.37686182 52.20594532 -8.5625 50.66796875 C-5.93559514 47.86374781 -5.84724659 45.00253067 -5.68359375 41.33203125 C-5.64169922 40.43935547 -5.59980469 39.54667969 -5.55664062 38.62695312 C-5.51732422 37.69818359 -5.47800781 36.76941406 -5.4375 35.8125 C-5.39431641 34.87212891 -5.35113281 33.93175781 -5.30664062 32.96289062 C-5.20061335 30.64207146 -5.09854971 28.32114675 -5 26 C-5.73605469 25.80664062 -6.47210938 25.61328125 -7.23046875 25.4140625 C-8.20628906 25.15367187 -9.18210937 24.89328125 -10.1875 24.625 C-11.63189453 24.24214844 -11.63189453 24.24214844 -13.10546875 23.8515625 C-15.82210207 23.05233704 -18.39137175 22.0968638 -21 21 C-17.25046938 19.5961473 -15.02719095 20.44759383 -11.375 21.875 C-10.41335938 22.24367187 -9.45171875 22.61234375 -8.4609375 22.9921875 C-6 24 -6 24 -4 25 C-3.67 25.99 -3.34 26.98 -3 28 C-2.01 28.33 -1.02 28.66 0 29 C0 19.43 0 9.86 0 0 Z " fill="#F07966" transform="translate(272,223)"/>
<path d="M0 0 C5.28 1.65 10.56 3.3 16 5 C16.09765625 13.49609375 16.09765625 13.49609375 16 16 C15 17 15 17 12 17.125 C9 17 9 17 8 16 C7.85884839 13.32941149 7.95752893 10.67567762 8 8 C5.03 8 2.06 8 -1 8 C-0.67 12.95 -0.34 17.9 0 23 C-2 22 -2 22 -2.703125 19.890625 C-4.50733138 11.17888563 -4.50733138 11.17888563 -2 7 C1.3 6.67 4.6 6.34 8 6 C5.53721199 3.53721199 3.29323018 3.00228745 0 2 C0 1.34 0 0.68 0 0 Z " fill="#FB7159" transform="translate(241,250)"/>
<path d="M0 0 C2.31 0 4.62 0 7 0 C8.82116003 1.82116003 8.1323508 4.30671764 8.13671875 6.7265625 C8.13285156 7.47679687 8.12898438 8.22703125 8.125 9 C8.12886719 9.75023437 8.13273437 10.50046875 8.13671875 11.2734375 C8.12661053 16.87338947 8.12661053 16.87338947 7 18 C4.69 18 2.38 18 0 18 C0 12.06 0 6.12 0 0 Z " fill="#F37561" transform="translate(344,231)"/>
<path d="M0 0 C2.31 0 4.62 0 7 0 C8.82116003 1.82116003 8.1323508 4.30671764 8.13671875 6.7265625 C8.13285156 7.47679687 8.12898437 8.22703125 8.125 9 C8.12886719 9.75023437 8.13273438 10.50046875 8.13671875 11.2734375 C8.12661053 16.87338947 8.12661053 16.87338947 7 18 C4.69 18 2.38 18 0 18 C0 12.06 0 6.12 0 0 Z " fill="#F27561" transform="translate(148,231)"/>
<path d="M0 0 C0.33 0 0.66 0 1 0 C1 10.56 1 21.12 1 32 C0.34 32 -0.32 32 -1 32 C-1 27.38 -1 22.76 -1 18 C-1.66 18 -2.32 18 -3 18 C-2.98839844 18.58007812 -2.97679687 19.16015625 -2.96484375 19.7578125 C-2.85804917 29.00317209 -2.85804917 29.00317209 -4 33 C-6.0625 34.875 -6.0625 34.875 -8 36 C-8 35.34 -8 34.68 -8 34 C-8.99 33.67 -9.98 33.34 -11 33 C-10.37963867 32.8138916 -9.75927734 32.6277832 -9.12011719 32.43603516 C-5.88184067 30.2426286 -5.87260315 27.78193029 -5.078125 24.0234375 C-4.92841248 23.33819 -4.77869995 22.6529425 -4.62445068 21.94692993 C-4.15033174 19.75935748 -3.69996021 17.56765562 -3.25 15.375 C-2.93254178 13.89029226 -2.61354948 12.40591165 -2.29296875 10.921875 C-1.51081513 7.28487621 -0.74987937 3.64380674 0 0 Z " fill="#E98D7D" transform="translate(318,244)"/>
<path d="M0 0 C0.66 0 1.32 0 2 0 C2 17.82 2 35.64 2 54 C1.01 54 0.02 54 -1 54 C-0.67 36.18 -0.34 18.36 0 0 Z " fill="#EB8474" transform="translate(137,222)"/>
<path d="M0 0 C0.66 0 1.32 0 2 0 C2 0.66 2 1.32 2 2 C2.66 2 3.32 2 4 2 C4.33 17.84 4.66 33.68 5 50 C3.68 49.67 2.36 49.34 1 49 C1.00222061 48.43037033 1.00444122 47.86074066 1.00672913 47.27384949 C1.02882725 41.35306423 1.04392559 35.43229066 1.05493164 29.51147461 C1.059965 27.30085779 1.06679217 25.09024431 1.07543945 22.87963867 C1.08754859 19.704907 1.09323825 16.53021928 1.09765625 13.35546875 C1.10281754 12.36475876 1.10797882 11.37404877 1.11329651 10.35331726 C1.11337204 9.43258926 1.11344757 8.51186127 1.11352539 7.56323242 C1.115746 6.7527092 1.11796661 5.94218597 1.12025452 5.10710144 C1.08120448 2.80751408 1.08120448 2.80751408 0 0 Z " fill="#EF8A7A" transform="translate(197,224)"/>
<path d="M0 0 C0.33 0 0.66 0 1 0 C1 17.49 1 34.98 1 53 C3.475 52.505 3.475 52.505 6 52 C7.24200752 46.6822785 8.30834212 41.41798672 9 36 C9.33 36 9.66 36 10 36 C10 41.94 10 47.88 10 54 C6.7 54 3.4 54 0 54 C0 36.18 0 18.36 0 0 Z " fill="#FFCFC5" transform="translate(334,222)"/>
<path d="M0 0 C0.33 0 0.66 0 1 0 C1.05819473 4.06243957 1.09366215 8.12477146 1.125 12.1875 C1.14175781 13.33798828 1.15851563 14.48847656 1.17578125 15.67382812 C1.18222656 16.78564453 1.18867188 17.89746094 1.1953125 19.04296875 C1.20578613 20.06414795 1.21625977 21.08532715 1.22705078 22.13745117 C0.92938748 25.89024921 -0.17021673 28.71907243 -2.20703125 31.86328125 C-6.22520299 34.41074961 -12.72727217 31.80378048 -17 31 C-17 36.61 -17 42.22 -17 48 C-17.33 48 -17.66 48 -18 48 C-18 42.06 -18 36.12 -18 30 C-13.55664062 29.85351562 -13.55664062 29.85351562 -9.11328125 29.70703125 C-4.79828341 28.7270882 -3.47930717 27.70099475 -1 24 C-0.25684956 19.89704117 -0.2093923 15.84946882 -0.1875 11.6875 C-0.16236328 10.56537109 -0.13722656 9.44324219 -0.11132812 8.28710938 C-0.0525468 5.52438714 -0.0162002 2.76324608 0 0 Z " fill="#EA7B6A" transform="translate(166,228)"/>
<path d="M0 0 C2.15641331 3.23461997 2.81100973 5.67072961 3.6875 9.4375 C3.95949219 10.57058594 4.23148437 11.70367187 4.51171875 12.87109375 C4.96087964 15.74931671 5.1343321 17.34904708 4 20 C3.34 20.33 2.68 20.66 2 21 C1.53248212 23.35599235 1.53248212 23.35599235 1.375 26.0625 C1.30023438 26.98160156 1.22546875 27.90070313 1.1484375 28.84765625 C1.09945313 29.55792969 1.05046875 30.26820313 1 31 C0.67 31 0.34 31 0 31 C0 20.77 0 10.54 0 0 Z " fill="#EF8E7F" transform="translate(298,245)"/>
<path d="M0 0 C4.62 0 9.24 0 14 0 C14 0.66 14 1.32 14 2 C10.04 2 6.08 2 2 2 C2 8.93 2 15.86 2 23 C1.34 23 0.68 23 0 23 C0 15.41 0 7.82 0 0 Z " fill="#EE9383" transform="translate(215,253)"/>
<path d="M0 0 C5.28 0 10.56 0 16 0 C16 0.33 16 0.66 16 1 C11.05 1 6.1 1 1 1 C1 4.3 1 7.6 1 11 C1.81984375 10.9278125 2.6396875 10.855625 3.484375 10.78125 C4.56203125 10.6884375 5.6396875 10.595625 6.75 10.5 C7.81734375 10.4071875 8.8846875 10.314375 9.984375 10.21875 C12.3179218 10.04947717 14.66032182 10 17 10 C16.34 13.63 15.68 17.26 15 21 C14.34 21 13.68 21 13 21 C13 18.03 13 15.06 13 12 C8.71 12 4.42 12 0 12 C0 8.04 0 4.08 0 0 Z " fill="#EE7864" transform="translate(216,232)"/>
<path d="M0 0 C5.28 1.65 10.56 3.3 16 5 C16.09765625 13.49609375 16.09765625 13.49609375 16 16 C15 17 15 17 12 17.125 C9 17 9 17 8 16 C7.85884839 13.32941149 7.95752893 10.67567762 8 8 C9.4606285 10.64738916 10 11.89448334 10 15 C11.32 15 12.64 15 14 15 C14.33 12.03 14.66 9.06 15 6 C12.958125 5.566875 12.958125 5.566875 10.875 5.125 C7.15697742 4.30268853 3.58833335 3.28811966 0 2 C0 1.34 0 0.68 0 0 Z " fill="#E87E6B" transform="translate(241,250)"/>
<path d="M0 0 C3.09343339 2.50704079 3.61166674 4.69646553 4.25 8.5625 C4.42015625 9.53316406 4.5903125 10.50382812 4.765625 11.50390625 C5 14 5 14 4 16 C3.01 15.67 2.02 15.34 1 15 C1 12.33333333 1 9.66666667 1 7 C0.34 8.98 -0.32 10.96 -1 13 C-1.33 13 -1.66 13 -2 13 C-2.05416188 11.39620659 -2.09286638 9.79188594 -2.125 8.1875 C-2.14820313 7.29417969 -2.17140625 6.40085937 -2.1953125 5.48046875 C-2 3 -2 3 0 0 Z " fill="#F47865" transform="translate(301,263)"/>
<path d="M0 0 C0.66 0 1.32 0 2 0 C2.0580476 3.27075883 2.09361165 6.54138524 2.125 9.8125 C2.14175781 10.74126953 2.15851563 11.67003906 2.17578125 12.62695312 C2.18222656 13.51962891 2.18867188 14.41230469 2.1953125 15.33203125 C2.20578613 16.15421143 2.21625977 16.9763916 2.22705078 17.82348633 C2 20 2 20 0 23 C-0.19635974 19.54210946 -0.38058252 16.08367803 -0.5625 12.625 C-0.61857422 11.64015625 -0.67464844 10.6553125 -0.73242188 9.640625 C-0.80493164 8.22910156 -0.80493164 8.22910156 -0.87890625 6.7890625 C-0.9260376 5.91975098 -0.97316895 5.05043945 -1.02172852 4.15478516 C-1 2 -1 2 0 0 Z " fill="#FEDBD0" transform="translate(265,249)"/>
<path d="M0 0 C3 0.125 3 0.125 4 1.125 C4.14115161 3.79558851 4.04247107 6.44932238 4 9.125 C6.97 9.125 9.94 9.125 13 9.125 C13 9.455 13 9.785 13 10.125 C9.7 10.125 6.4 10.125 3 10.125 C2.67 7.815 2.34 5.505 2 3.125 C0.68 3.125 -0.64 3.125 -2 3.125 C-2.33 6.095 -2.66 9.065 -3 12.125 C-3.33 12.125 -3.66 12.125 -4 12.125 C-4.02687279 10.31257948 -4.04633715 8.50004767 -4.0625 6.6875 C-4.07410156 5.67816406 -4.08570313 4.66882813 -4.09765625 3.62890625 C-3.95490967 -0.03111609 -3.71484981 0.15478541 0 0 Z " fill="#E47F70" transform="translate(253,230.875)"/>
<path d="M0 0 C0.33 0 0.66 0 1 0 C1 5.94 1 11.88 1 18 C-1.97 18 -4.94 18 -8 18 C-6.68 17.34 -5.36 16.68 -4 16 C-1.18515955 13.18515955 -1.37242958 10.7833753 -0.875 6.875 C-0.70742188 5.59367187 -0.53984375 4.31234375 -0.3671875 2.9921875 C-0.24601562 2.00476563 -0.12484375 1.01734375 0 0 Z " fill="#FEDDD6" transform="translate(343,258)"/>
<path d="M0 0 C1.31871094 0.00386719 2.63742188 0.00773438 3.99609375 0.01171875 C7.18014586 0.28025326 8.92042465 0.61643629 11.5625 2.3125 C10.5725 2.6425 9.5825 2.9725 8.5625 3.3125 C7.9025 2.9825 7.2425 2.6525 6.5625 2.3125 C4.62699136 2.21529573 2.68794208 2.18272086 0.75 2.1875 C-0.28769531 2.18492187 -1.32539063 2.18234375 -2.39453125 2.1796875 C-5.19092942 2.30173825 -7.71689879 2.67886645 -10.4375 3.3125 C-7.74593121 -0.53695121 -4.28454384 -0.1026976 0 0 Z " fill="#FEE1D9" transform="translate(252.4375,221.6875)"/>
<path d="M0 0 C0.33 0 0.66 0 1 0 C1.33 4.62 1.66 9.24 2 14 C1.34 13.67 0.68 13.34 0 13 C-0.703125 10.8203125 -0.703125 10.8203125 -1.25 8.125 C-1.44078125 7.24070312 -1.6315625 6.35640625 -1.828125 5.4453125 C-2 3 -2 3 0 0 Z " fill="#F48D7A" transform="translate(239,259)"/>
<path d="M0 0 C0.99 0.33 1.98 0.66 3 1 C2.34 2.98 1.68 4.96 1 7 C0.67 5.68 0.34 4.36 0 3 C-3.63 3.33 -7.26 3.66 -11 4 C-11 3.34 -11 2.68 -11 2 C-10.28972656 1.93941406 -9.57945312 1.87882812 -8.84765625 1.81640625 C-7.46900391 1.69072266 -7.46900391 1.69072266 -6.0625 1.5625 C-5.14597656 1.48128906 -4.22945312 1.40007812 -3.28515625 1.31640625 C-1.03840268 1.23955024 -1.03840268 1.23955024 0 0 Z " fill="#F67563" transform="translate(250,255)"/>
<path d="M0 0 C0.99 0.495 0.99 0.495 2 1 C2.33 1.99 2.66 2.98 3 4 C3.66 4.33 4.32 4.66 5 5 C5 5.99 5 6.98 5 8 C5.66 8 6.32 8 7 8 C7 8.99 7 9.98 7 11 C3.66428571 9.88809524 3.41582921 9.53679327 1.8125 6.625 C1.46832031 6.01914062 1.12414062 5.41328125 0.76953125 4.7890625 C0 3 0 3 0 0 Z " fill="#DF7466" transform="translate(93,308)"/>
<path d="M0 0 C0.66 0.66 1.32 1.32 2 2 C1.19185349 3.33597652 0.37836819 4.668725 -0.4375 6 C-0.88996094 6.7425 -1.34242188 7.485 -1.80859375 8.25 C-2.20175781 8.8275 -2.59492188 9.405 -3 10 C-3.33 10 -3.66 10 -4 10 C-4 8.35 -4 6.7 -4 5 C-3.34 5 -2.68 5 -2 5 C-1.7834375 4.0409375 -1.7834375 4.0409375 -1.5625 3.0625 C-1 1 -1 1 0 0 Z " fill="#E77062" transform="translate(405,309)"/>
<path d="M0 0 C0.66 0 1.32 0 2 0 C2.25 2.3125 2.25 2.3125 2 5 C0 6.8125 0 6.8125 -2 8 C-2 7.34 -2 6.68 -2 6 C-2.99 5.67 -3.98 5.34 -5 5 C-4.360625 4.731875 -3.72125 4.46375 -3.0625 4.1875 C-0.66868314 3.11332248 -0.66868314 3.11332248 0 0 Z " fill="#F57865" transform="translate(312,272)"/>
<path d="M0 0 C1.485 0.99 1.485 0.99 3 2 C3.1875 5.625 3.1875 5.625 3 9 C0.90250005 6.64031256 0.03094296 5.45383006 -0.1875 2.25 C-0.125625 1.5075 -0.06375 0.765 0 0 Z " fill="#FEF4EA" transform="translate(162,224)"/>
</svg>
